<svg width="74" height="74" viewBox="0 0 74 74" fill="none" xmlns="http://www.w3.org/2000/svg">
<path d="M67.8332 51.2062C67.8332 51.9674 67.681 52.7286 67.3765 53.4289C67.082 54.1307 66.6586 54.771 66.1281 55.3168C65.577 55.8374 64.9376 56.2607 64.2403 56.5652C63.5243 56.8532 62.7588 56.998 61.9871 56.9914C58.5411 56.9337 55.0994 57.2605 51.7259 57.9658C47.7286 58.4384 43.8777 59.7566 40.4294 61.8328V16.4338C43.7514 14.8504 47.3108 13.8213 50.9647 13.3889C54.6834 12.6514 58.4706 12.3146 62.2611 12.3841C63.7711 12.4679 65.1899 13.1336 66.2195 14.2415C67.2243 15.3132 67.7815 16.7291 67.7723 18.1998L67.8332 51.2062ZM34.3397 16.4338V61.8328C30.9487 59.7755 27.1615 58.4577 23.2259 57.9658C19.7892 57.2701 16.288 56.9435 12.782 56.9914C12.0098 57.0036 11.2431 56.8586 10.5288 56.5652C9.83207 56.2612 9.19334 55.8389 8.64094 55.3168C8.09868 54.7806 7.67359 54.1378 7.39254 53.4289C7.08944 52.7272 6.93398 51.9706 6.93581 51.2062V18.0171C6.9406 16.5493 7.50316 15.1381 8.50952 14.0696C9.51587 13.001 10.8908 12.355 12.3557 12.2623C16.2278 12.1644 20.0988 12.5014 23.8957 13.2671C27.5306 13.7268 31.0616 14.7974 34.3397 16.4338Z" fill="white"/>
</svg>
