<svg width="60" height="61" viewBox="0 0 60 61" fill="none" xmlns="http://www.w3.org/2000/svg">
<path d="M57.4644 10.6599V6.16567L52.9701 5.66631C52.7204 5.66631 51.2224 5.41663 48.7256 5.41663C38.4887 5.41663 30.9983 8.41279 26.7538 13.6561C23.5079 11.6586 19.0137 10.4102 13.7704 10.4102C11.2736 10.4102 9.52589 10.6599 9.52589 10.6599L4.78198 11.4089L5.03166 15.6535C5.28134 23.1439 9.02653 37.3756 22.0099 37.3756H22.5092V45.8647C13.0214 47.1131 5.03166 50.3589 5.03166 50.3589V55.3525H54.9676V50.3589C54.9676 50.3589 46.9778 47.1131 37.49 45.8647V37.875C53.2198 37.6253 57.4644 19.898 57.4644 10.6599ZM29.9996 45.3654H27.5028V31.3833C27.5028 31.3833 27.0035 22.8942 20.0124 22.8942C20.0124 22.8942 23.7576 24.8916 24.7563 32.1323C23.7576 32.382 22.7589 32.382 22.0099 32.382C10.5246 32.382 10.0253 15.6535 10.0253 15.6535C10.0253 15.6535 11.5233 15.4038 13.7704 15.4038C18.5144 15.4038 26.2544 16.4025 28.5015 23.1439C29.7499 11.9083 42.4836 10.4102 48.7256 10.4102C50.9727 10.4102 52.4708 10.6599 52.4708 10.6599C52.4708 10.6599 52.4708 33.1311 36.741 33.1311H34.9932C34.9932 28.1375 39.9868 20.6471 39.9868 20.6471C32.4964 23.1439 32.4964 32.8814 32.4964 32.8814V45.3654H29.9996Z" fill="white"/>
</svg>
