<svg width="1693" height="543" viewBox="0 0 1693 543" fill="none" xmlns="http://www.w3.org/2000/svg">
<path d="M564.615 1.38489L1.00015 542" stroke="white" stroke-opacity="0.05"/>
<path d="M582.796 1.38489L73.5885 542" stroke="white" stroke-opacity="0.05"/>
<path d="M600.978 1.38489L141.41 542" stroke="white" stroke-opacity="0.05"/>
<path d="M619.158 1.38489L205.289 542" stroke="white" stroke-opacity="0.05"/>
<path d="M637.34 1.38489L265.886 542" stroke="white" stroke-opacity="0.05"/>
<path d="M655.521 1.38489L323.74 542" stroke="white" stroke-opacity="0.05"/>
<path d="M673.702 1.38489L379.293 542" stroke="white" stroke-opacity="0.05"/>
<path d="M691.883 1.38489L432.918 542" stroke="white" stroke-opacity="0.05"/>
<path d="M710.064 1.38489L484.928 542" stroke="white" stroke-opacity="0.05"/>
<path d="M728.245 1.38489L535.596 542" stroke="white" stroke-opacity="0.05"/>
<path d="M746.426 1.38489L585.156 542" stroke="white" stroke-opacity="0.05"/>
<path d="M764.607 1.38489L633.818 542" stroke="white" stroke-opacity="0.05"/>
<path d="M782.789 1.38489L681.771 542" stroke="white" stroke-opacity="0.05"/>
<path d="M800.97 1.38489L729.188 542" stroke="white" stroke-opacity="0.05"/>
<path d="M819.151 1.38489L776.23 542" stroke="white" stroke-opacity="0.05"/>
<path d="M837.332 1.38489L823.05 542" stroke="white" stroke-opacity="0.05"/>
<path d="M855.513 1.38489L869.796 542" stroke="white" stroke-opacity="0.05"/>
<path d="M873.694 1.38489L916.615 542" stroke="white" stroke-opacity="0.05"/>
<path d="M891.875 1.38489L963.657 542" stroke="white" stroke-opacity="0.05"/>
<path d="M910.057 1.38489L1011.07 542" stroke="white" stroke-opacity="0.05"/>
<path d="M928.238 1.38489L1059.03 542" stroke="white" stroke-opacity="0.05"/>
<path d="M946.419 1.38489L1107.69 542" stroke="white" stroke-opacity="0.05"/>
<path d="M964.6 1.38489L1157.25 542" stroke="white" stroke-opacity="0.05"/>
<path d="M982.781 1.38489L1207.92 542" stroke="white" stroke-opacity="0.05"/>
<path d="M1000.96 1.38489L1259.93 542" stroke="white" stroke-opacity="0.05"/>
<path d="M1019.14 1.38489L1313.55 542" stroke="white" stroke-opacity="0.05"/>
<path d="M1037.32 1.38489L1369.11 542" stroke="white" stroke-opacity="0.05"/>
<path d="M1055.51 1.38489L1426.96 542" stroke="white" stroke-opacity="0.05"/>
<path d="M1073.69 1.38489L1487.56 542" stroke="white" stroke-opacity="0.05"/>
<path d="M1091.87 1.38489L1551.44 542" stroke="white" stroke-opacity="0.05"/>
<path d="M1110.05 1.38489L1619.26 542" stroke="white" stroke-opacity="0.05"/>
<path d="M1128.23 1.38489L1691.85 542" stroke="white" stroke-opacity="0.05"/>
<path d="M1.00012 542H1691.85" stroke="white" stroke-opacity="0.05"/>
<path d="M19.1813 524.561H1673.66" stroke="white" stroke-opacity="0.05"/>
<path d="M37.3624 507.121H1655.48" stroke="white" stroke-opacity="0.05"/>
<path d="M55.5435 489.682H1637.3" stroke="white" stroke-opacity="0.05"/>
<path d="M73.7246 472.243H1619.12" stroke="white" stroke-opacity="0.05"/>
<path d="M91.9058 454.804H1600.94" stroke="white" stroke-opacity="0.05"/>
<path d="M110.087 437.365H1582.76" stroke="white" stroke-opacity="0.05"/>
<path d="M128.268 419.925H1564.58" stroke="white" stroke-opacity="0.05"/>
<path d="M146.449 402.486H1546.4" stroke="white" stroke-opacity="0.05"/>
<path d="M164.63 385.047H1528.21" stroke="white" stroke-opacity="0.05"/>
<path d="M182.811 367.608H1510.03" stroke="white" stroke-opacity="0.05"/>
<path d="M200.993 350.169H1491.85" stroke="white" stroke-opacity="0.05"/>
<path d="M219.174 332.729H1473.67" stroke="white" stroke-opacity="0.05"/>
<path d="M237.355 315.29H1455.49" stroke="white" stroke-opacity="0.05"/>
<path d="M255.536 297.851H1437.31" stroke="white" stroke-opacity="0.05"/>
<path d="M273.717 280.412H1419.13" stroke="white" stroke-opacity="0.05"/>
<path d="M291.898 262.973H1400.95" stroke="white" stroke-opacity="0.05"/>
<path d="M310.079 245.534H1382.77" stroke="white" stroke-opacity="0.05"/>
<path d="M328.26 228.094H1364.58" stroke="white" stroke-opacity="0.05"/>
<path d="M346.442 210.655H1346.4" stroke="white" stroke-opacity="0.05"/>
<path d="M364.623 193.216H1328.22" stroke="white" stroke-opacity="0.05"/>
<path d="M382.804 175.777H1310.04" stroke="white" stroke-opacity="0.05"/>
<path d="M400.985 158.338H1291.86" stroke="white" stroke-opacity="0.05"/>
<path d="M419.166 140.898H1273.68" stroke="white" stroke-opacity="0.05"/>
<path d="M437.347 123.459H1255.5" stroke="white" stroke-opacity="0.05"/>
<path d="M455.528 106.02H1237.32" stroke="white" stroke-opacity="0.05"/>
<path d="M473.709 88.5808H1219.14" stroke="white" stroke-opacity="0.05"/>
<path d="M491.891 71.1417H1200.95" stroke="white" stroke-opacity="0.05"/>
<path d="M510.072 53.7025H1182.77" stroke="white" stroke-opacity="0.05"/>
<path d="M528.253 36.2632H1164.59" stroke="white" stroke-opacity="0.05"/>
<path d="M546.434 18.8241H1146.41" stroke="white" stroke-opacity="0.05"/>
<path d="M564.615 1.38489H1128.23" stroke="white" stroke-opacity="0.05"/>
</svg>
