<svg width="63" height="62" viewBox="0 0 63 62" fill="none" xmlns="http://www.w3.org/2000/svg">
<path d="M54.5192 25.7381V10.2308C54.5192 9.55248 54.2497 8.90192 53.7701 8.42226C53.2904 7.9426 52.6398 7.67313 51.9615 7.67313H49.4038C44.3421 12.7348 34.8326 15.5687 28.9423 16.9141V44.4706C34.8326 45.816 44.3421 48.6499 49.4038 53.7116H51.9615C52.6398 53.7116 53.2904 53.4421 53.7701 52.9625C54.2497 52.4828 54.5192 51.8322 54.5192 51.1539V35.6466C55.6184 35.364 56.5924 34.7238 57.2878 33.8269C57.9833 32.93 58.3608 31.8273 58.3608 30.6924C58.3608 29.5574 57.9833 28.4547 57.2878 27.5578C56.5924 26.6609 55.6184 26.0207 54.5192 25.7381ZM13.5961 17.9039C12.2394 17.9039 10.9383 18.4428 9.97897 19.4022C9.01965 20.3615 8.48071 21.6626 8.48071 23.0193V38.3654C8.48071 39.7221 9.01965 41.0232 9.97897 41.9826C10.9383 42.9419 12.2394 43.4808 13.5961 43.4808H16.1538L18.7115 56.2693H23.8269V17.9039H13.5961Z" fill="white"/>
</svg>
